<svg version="1.1" id="Layer_1" xmlns="http://www.w3.org/2000/svg" xmlns:xlink="http://www.w3.org/1999/xlink" x="0px" y="0px"
	 width="100%" viewBox="0 0 590 85" enable-background="new 0 0 590 85" xml:space="preserve">
<path fill="#FBFCFE" opacity="1.000000" stroke="none" 
	d="
M47.000000,86.000000 
	C31.704874,86.000000 16.409750,86.000000 1.057312,86.000000 
	C1.057312,57.775574 1.057312,29.551003 1.057312,1.000000 
	C15.685948,1.000000 30.374315,1.000000 45.382362,1.372572 
	C46.187592,8.383410 46.622135,15.026576 47.258457,21.650358 
	C47.307751,22.163479 48.908741,23.036737 49.549072,22.862518 
	C50.470642,22.611776 51.623569,21.680702 51.869270,20.811468 
	C52.311188,19.248070 52.240555,17.514328 52.228573,15.852875 
	C52.192856,10.901625 52.081688,5.950919 52.000000,1.000000 
	C231.599106,1.000000 411.198212,1.000000 590.898682,1.000000 
	C590.898682,29.254782 590.898682,57.510048 590.898682,86.000000 
	C411.645844,86.000000 232.291580,86.000000 52.628265,85.642426 
	C52.767704,85.064972 53.621029,84.812012 53.606155,84.630020 
	C53.079834,78.191170 52.507256,71.755066 51.794075,65.334923 
	C51.748127,64.921272 50.455566,64.268562 49.873135,64.384018 
	C49.077648,64.541702 47.805458,65.297203 47.774837,65.853508 
	C47.405567,72.562897 47.227734,79.282822 47.000000,86.000000 
M161.204605,64.417343 
	C148.374847,64.480782 135.545090,64.544228 122.399391,63.914677 
	C122.399391,45.210861 122.399391,26.507044 122.399391,7.782561 
	C115.253098,7.782561 109.033730,7.782561 102.754440,7.782561 
	C102.754440,32.012039 102.754440,55.862457 102.754440,79.966721 
	C122.899117,79.966721 142.678009,79.973625 162.456757,79.924446 
	C162.921402,79.923294 163.384476,79.292435 163.988235,78.041031 
	C163.906082,73.705795 163.823929,69.370560 163.614487,64.515480 
	C163.119614,64.559113 162.624725,64.602753 161.204605,64.417343 
M84.171066,40.036236 
	C80.576843,40.407402 76.960159,40.644566 73.403702,41.240944 
	C72.477577,41.396244 71.739334,42.671928 70.914803,43.433029 
	C71.694855,44.234390 72.388718,45.605553 73.269821,45.738819 
	C77.156456,46.326664 81.097031,46.557873 85.779869,47.086178 
	C87.811096,47.285583 89.842316,47.484989 92.040787,47.700813 
	C92.040787,44.669361 92.040787,42.128872 92.040787,39.065186 
	C89.455421,39.450020 87.242218,39.779457 84.171066,40.036236 
M276.940491,22.977428 
	C276.940491,22.977428 276.938293,23.044411 277.188477,23.947475 
	C277.188477,42.349689 277.188477,60.751907 277.188477,79.267532 
	C283.922821,79.267532 289.999725,79.267532 296.824860,78.768333 
	C296.894318,60.233486 296.963806,41.698639 297.960754,23.054644 
	C306.624146,22.959743 315.287537,22.864843 324.703430,22.423355 
	C324.703430,17.648560 324.703430,12.873764 324.703430,8.004467 
	C323.865906,7.803404 323.238312,7.521778 322.610352,7.520902 
	C299.230347,7.488279 275.850250,7.465723 252.470474,7.535923 
	C251.632797,7.538439 250.797974,8.491450 249.781845,9.913391 
	C249.850388,13.942660 249.918930,17.971930 250.359879,22.793329 
	C259.241791,22.849403 268.123718,22.905478 276.940491,22.977428 
M225.326263,55.505398 
	C224.108536,61.669079 220.085815,65.157906 214.163498,66.040100 
	C209.264313,66.769890 204.198074,67.151863 199.274796,66.778625 
	C190.178711,66.089050 184.319901,62.496178 184.182709,52.233849 
	C184.078186,44.415562 184.150040,36.594894 184.146835,28.775284 
	C184.144119,22.172047 184.146286,15.568811 184.146286,8.887920 
	C177.451828,8.887920 171.399017,8.887920 165.152725,8.887920 
	C165.152725,24.807917 164.543686,40.441460 165.352478,56.001305 
	C165.959473,67.679016 174.272507,75.965721 185.834396,78.936623 
	C197.300400,81.882874 208.869736,82.050468 220.448563,79.846931 
	C234.449951,77.182396 242.478149,69.507652 244.983826,56.124977 
	C245.007843,54.741730 245.031860,53.358479 245.281204,51.337337 
	C245.205902,50.899227 245.130615,50.461117 245.199203,49.091358 
	C245.199203,35.362621 245.199203,21.633886 245.199203,7.933764 
	C238.335754,7.933764 232.279999,7.933764 225.744705,7.933764 
	C225.744705,23.810625 225.744705,39.381840 225.326263,55.505398 
M524.354065,77.068237 
	C524.354065,62.933388 524.354065,48.798534 524.354065,33.216019 
	C536.868713,48.391628 548.270325,62.264282 559.754272,76.068436 
	C560.856079,77.392853 562.428040,79.169968 563.853455,79.238182 
	C570.759705,79.568665 577.690491,79.387276 584.729065,79.387276 
	C584.729065,55.179379 584.729065,31.603729 584.729065,7.788038 
	C578.210815,7.788038 571.958374,7.788038 565.128723,7.788038 
	C565.128723,23.199036 565.128723,38.381989 565.128723,55.048531 
	C559.136597,47.552914 554.138977,41.211266 549.043701,34.949127 
	C541.724426,25.953728 534.333984,17.016249 526.096863,7.703185 
	C519.178406,7.703185 512.259949,7.703185 505.067047,7.703185 
	C505.067047,16.435495 505.067047,24.704424 504.895844,33.649605 
	C504.952911,34.107563 505.010010,34.565521 504.929016,35.948792 
	C504.929016,50.328358 504.929016,64.707924 504.929016,79.375389 
	C510.322571,79.375389 515.118103,79.479599 519.904114,79.311317 
	C521.323120,79.261429 522.715210,78.444557 524.354065,77.068237 
M464.171509,6.016548 
	C453.626801,4.650061 443.241608,5.126301 433.088989,8.587870 
	C419.319092,13.282739 409.909180,24.941036 408.872650,38.669571 
	C407.618317,55.282673 414.590088,68.833092 428.279205,75.617264 
	C443.266174,83.044647 458.942566,83.520546 474.346680,77.745056 
	C499.331757,68.377365 507.058105,38.401016 489.955902,18.714220 
	C483.422516,11.193444 474.571960,7.896058 464.171509,6.016548 
M362.503723,51.140739 
	C367.334656,51.142822 372.165619,51.153118 376.996552,51.144733 
	C382.046600,51.135971 385.128906,53.435711 386.049347,58.548607 
	C386.932983,63.457253 387.534088,68.491325 389.148621,73.162956 
	C389.978912,75.565361 392.400818,78.224037 394.728790,79.094360 
	C397.513824,80.135551 401.010559,79.693718 404.106689,79.249954 
	C405.165039,79.098259 406.874268,76.843140 406.701294,75.815926 
	C405.515381,68.773575 403.975525,61.787128 402.415405,54.812698 
	C401.198425,49.372002 398.969696,44.761890 390.892181,44.761124 
	C393.228973,43.590099 394.236755,43.104191 395.227448,42.585571 
	C403.536316,38.235855 407.299805,31.192270 405.930725,22.568808 
	C404.622833,14.330831 399.509308,9.274014 390.046936,7.737254 
	C385.467743,6.993559 380.730103,7.077307 376.062775,7.051793 
	C361.736816,6.973481 347.410156,7.013227 333.083832,7.041337 
	C331.825409,7.043807 330.567444,7.296716 329.413910,7.421940 
	C329.413910,31.574944 329.413910,55.323196 329.413910,79.434967 
	C331.560883,79.434967 333.378021,79.456764 335.194489,79.431496 
	C349.040680,79.238914 347.057190,81.408089 347.202576,67.658722 
	C347.259918,62.238659 347.212006,56.817482 347.212006,51.140808 
	C352.533783,51.140808 357.020264,51.140808 362.503723,51.140739 
M25.713436,24.786396 
	C28.035114,26.594458 30.356792,28.402521 33.671402,30.983852 
	C34.176582,28.657257 35.281471,26.579029 34.688721,25.811007 
	C30.785618,20.753750 26.516829,15.978726 22.060577,10.751925 
	C19.919065,13.141006 18.201628,15.056987 16.254164,17.229588 
	C19.479082,19.803854 22.317881,22.069902 25.713436,24.786396 
M25.821238,36.763161 
	C29.210560,37.996357 30.222469,36.279686 30.390490,33.193340 
	C24.255987,30.034988 18.267570,26.951847 11.806898,23.625566 
	C10.632727,26.390018 9.637945,28.732119 8.462433,31.499727 
	C14.343481,33.255970 19.709288,34.858349 25.821238,36.763161 
M15.930622,62.450256 
	C19.848042,60.327213 23.685825,58.035423 27.709118,56.136723 
	C30.703758,54.723476 31.247267,53.083179 29.047232,50.265621 
	C22.445545,52.343945 15.787340,54.440060 8.895082,56.609859 
	C9.710035,58.685677 10.373915,60.180202 10.886268,61.724979 
	C11.792479,64.457275 13.329932,64.399986 15.930622,62.450256 
M37.946331,6.669494 
	C37.440521,5.503547 36.934708,4.337600 36.320850,2.922600 
	C33.677189,4.056941 31.304947,5.074821 28.656424,6.211248 
	C32.290665,12.631034 35.696972,18.648174 39.269974,24.959784 
	C40.686230,24.210789 41.872700,23.583317 43.023563,22.974674 
	C41.304859,17.507601 39.720291,12.467217 37.946331,6.669494 
M67.885956,64.633415 
	C70.986740,68.393593 74.087517,72.153763 77.407677,76.179962 
	C79.708572,73.714165 81.468483,71.828125 83.410423,69.747009 
	C77.649605,65.199463 72.330643,61.000725 66.512291,56.407761 
	C65.434372,57.449982 64.542770,58.312061 63.571716,59.250965 
	C65.167297,61.251366 66.298233,62.669228 67.885956,64.633415 
M74.210800,12.492657 
	C70.521339,17.166292 66.831879,21.839926 62.960056,26.744570 
	C64.250359,27.696934 65.393074,28.540369 66.647217,29.466043 
	C71.997704,24.976204 77.131454,20.668238 82.781586,15.926955 
	C79.490097,14.654552 79.368256,9.239182 74.210800,12.492657 
M28.056190,61.528255 
	C24.282810,64.617447 20.509432,67.706642 16.445133,71.034004 
	C18.901854,73.212166 20.807959,74.902153 23.018604,76.862144 
	C27.595177,71.138016 31.805882,65.871498 35.977432,60.653950 
	C32.929939,55.278976 30.917953,59.772472 28.056190,61.528255 
M69.022980,33.584316 
	C69.886436,34.524273 70.992119,36.408840 71.576141,36.259079 
	C77.900528,34.637341 84.142967,32.696033 90.724236,30.748304 
	C89.490364,27.773718 88.555405,25.519749 87.419289,22.780855 
	C81.137169,26.304399 75.239159,29.612505 69.022980,33.584316 
M60.856808,77.691177 
	C61.427193,79.501732 61.997581,81.312286 62.689999,83.510193 
	C65.634003,82.178772 67.952309,81.130318 70.537903,79.960983 
	C66.965317,73.582680 63.680916,67.718887 60.396515,61.855095 
	C59.828941,61.796925 59.261368,61.738754 58.693794,61.680580 
	C58.251774,63.290588 57.197079,65.023003 57.489433,66.486290 
	C58.198116,70.033356 59.534000,73.455109 60.856808,77.691177 
M57.115444,19.511435 
	C57.430813,21.003819 57.746181,22.496204 58.061554,23.988590 
	C59.248764,23.192324 60.879757,22.662901 61.546665,21.553782 
	C64.495987,16.648815 67.168098,11.577164 70.169525,6.151989 
	C67.403831,4.965068 65.056366,3.957633 62.337200,2.790678 
	C60.571602,8.432177 58.954517,13.599134 57.115444,19.511435 
M87.940208,54.628983 
	C82.839630,53.110840 77.764252,51.494961 72.614502,50.167576 
	C71.721642,49.937428 70.514206,50.927753 69.452065,51.354351 
	C69.947273,52.353561 70.176399,53.808334 70.980804,54.278156 
	C76.259781,57.361446 81.662964,60.232075 88.714409,64.098007 
	C88.714409,60.164577 88.714409,57.515102 87.940208,54.628983 
M16.307060,40.339397 
	C13.292149,40.339397 10.277238,40.339397 7.390749,40.339397 
	C7.390749,43.086372 7.390749,45.478012 7.390749,48.232826 
	C14.465100,47.419460 21.130041,46.653168 27.677517,45.900375 
	C28.581285,42.654896 27.825872,41.089417 24.590338,41.049286 
	C22.118519,41.018627 19.650793,40.658237 16.307060,40.339397 
M42.658272,67.128304 
	C42.345169,65.895943 42.032063,64.663574 41.718956,63.431213 
	C40.583427,64.020660 38.932579,64.315025 38.397991,65.248596 
	C35.455879,70.386459 32.786663,75.680588 29.819500,81.308632 
	C32.543411,82.436485 34.769299,83.358124 37.408401,84.450851 
	C39.149342,78.615463 40.750744,73.247780 42.658272,67.128304 
z"/>
<path fill="#267BBE" opacity="1.000000" stroke="none" 
	d="
M47.416664,86.000000 
	C47.227734,79.282822 47.405567,72.562897 47.774837,65.853508 
	C47.805458,65.297203 49.077648,64.541702 49.873135,64.384018 
	C50.455566,64.268562 51.748127,64.921272 51.794075,65.334923 
	C52.507256,71.755066 53.079834,78.191170 53.606155,84.630020 
	C53.621029,84.812012 52.767704,85.064972 52.159607,85.642426 
	C50.611111,86.000000 49.222221,86.000000 47.416664,86.000000 
z"/>
<path fill="#1773BA" opacity="1.000000" stroke="none" 
	d="
M51.571537,1.000000 
	C52.081688,5.950919 52.192856,10.901625 52.228573,15.852875 
	C52.240555,17.514328 52.311188,19.248070 51.869270,20.811468 
	C51.623569,21.680702 50.470642,22.611776 49.549072,22.862518 
	C48.908741,23.036737 47.307751,22.163479 47.258457,21.650358 
	C46.622135,15.026576 46.187592,8.383410 45.851021,1.372572 
	C47.714359,1.000000 49.428715,1.000000 51.571537,1.000000 
z"/>
<path fill="#1F76BB" opacity="1.000000" stroke="none" 
	d="
M505.067078,35.023479 
	C505.010010,34.565521 504.952911,34.107563 505.267456,33.011703 
	C505.760193,26.595503 506.216827,20.798571 505.897369,15.044727 
	C505.637115,10.356917 506.937439,8.611712 511.865173,8.868937 
	C516.873657,9.130377 521.935486,8.368048 526.973938,8.054041 
	C534.333984,17.016249 541.724426,25.953728 549.043701,34.949127 
	C554.138977,41.211266 559.136597,47.552914 565.128723,55.048531 
	C565.128723,38.381989 565.128723,23.199036 565.128723,7.788038 
	C571.958374,7.788038 578.210815,7.788038 584.729065,7.788038 
	C584.729065,31.603729 584.729065,55.179379 584.729065,79.387276 
	C577.690491,79.387276 570.759705,79.568665 563.853455,79.238182 
	C562.428040,79.169968 560.856079,77.392853 559.754272,76.068436 
	C548.270325,62.264282 536.868713,48.391628 524.354065,33.216019 
	C524.354065,48.798534 524.354065,62.933388 523.759644,77.528748 
	C518.834900,77.993752 514.495239,77.824883 510.177368,78.058517 
	C506.827545,78.239769 505.902161,76.910301 505.945221,73.712029 
	C506.095398,62.555229 506.042877,51.394859 505.960632,40.236641 
	C505.947784,38.496819 505.378845,36.761101 505.067078,35.023479 
z"/>
<path fill="#2076BC" opacity="1.000000" stroke="none" 
	d="
M464.603943,6.075332 
	C474.571960,7.896058 483.422516,11.193444 489.955902,18.714220 
	C507.058105,38.401016 499.331757,68.377365 474.346680,77.745056 
	C458.942566,83.520546 443.266174,83.044647 428.279205,75.617264 
	C414.590088,68.833092 407.618317,55.282673 408.872650,38.669571 
	C409.909180,24.941036 419.319092,13.282739 433.088989,8.587870 
	C443.241608,5.126301 453.626801,4.650061 464.603943,6.075332 
M460.586182,20.585049 
	C440.418854,17.157070 429.044312,28.051611 431.621887,48.327106 
	C431.684784,48.821907 431.738007,49.318188 431.812714,49.811199 
	C433.169006,58.758049 438.815643,64.555908 447.765259,65.809486 
	C450.868744,66.244186 454.075989,66.290527 457.209686,66.095078 
	C469.377991,65.336105 476.571075,57.729450 477.745178,44.615685 
	C478.836548,32.426239 472.991241,23.896778 460.586182,20.585049 
z"/>
<path fill="#2076BC" opacity="1.000000" stroke="none" 
	d="
M362.005219,51.140774 
	C357.020264,51.140808 352.533783,51.140808 347.212006,51.140808 
	C347.212006,56.817482 347.259918,62.238659 347.202576,67.658722 
	C347.057190,81.408089 349.040680,79.238914 335.194489,79.431496 
	C333.378021,79.456764 331.560883,79.434967 329.413910,79.434967 
	C329.413910,55.323196 329.413910,31.574944 329.413910,7.421940 
	C330.567444,7.296716 331.825409,7.043807 333.083832,7.041337 
	C347.410156,7.013227 361.736816,6.973481 376.062775,7.051793 
	C380.730103,7.077307 385.467743,6.993559 390.046936,7.737254 
	C399.509308,9.274014 404.622833,14.330831 405.930725,22.568808 
	C407.299805,31.192270 403.536316,38.235855 395.227448,42.585571 
	C394.236755,43.104191 393.228973,43.590099 390.892181,44.761124 
	C398.969696,44.761890 401.198425,49.372002 402.415405,54.812698 
	C403.975525,61.787128 405.515381,68.773575 406.701294,75.815926 
	C406.874268,76.843140 405.165039,79.098259 404.106689,79.249954 
	C401.010559,79.693718 397.513824,80.135551 394.728790,79.094360 
	C392.400818,78.224037 389.978912,75.565361 389.148621,73.162956 
	C387.534088,68.491325 386.932983,63.457253 386.049347,58.548607 
	C385.128906,53.435711 382.046600,51.135971 376.996552,51.144733 
	C372.165619,51.153118 367.334656,51.142822 362.005219,51.140774 
M372.295685,22.019602 
	C364.012756,22.019602 355.729858,22.019602 347.242798,22.019602 
	C347.242798,27.911718 347.242798,33.296860 347.242798,38.777203 
	C357.663757,38.777203 367.791351,38.823936 377.917542,38.724506 
	C379.360382,38.710339 380.873505,38.160370 382.220154,37.558605 
	C385.585266,36.054806 387.108765,32.962811 386.118103,29.785210 
	C385.344879,27.305151 383.215576,24.728149 380.975494,23.376501 
	C378.883972,22.114496 375.852570,22.410191 372.295685,22.019602 
z"/>
<path fill="#1F76BB" opacity="1.000000" stroke="none" 
	d="
M245.055328,50.023003 
	C245.130615,50.461117 245.205902,50.899227 244.892944,51.868546 
	C244.597122,53.910664 244.689560,55.421570 244.781998,56.932480 
	C242.478149,69.507652 234.449951,77.182396 220.448563,79.846931 
	C208.869736,82.050468 197.300400,81.882874 185.834396,78.936623 
	C174.272507,75.965721 165.959473,67.679016 165.352478,56.001305 
	C164.543686,40.441460 165.152725,24.807917 165.152725,8.887920 
	C171.399017,8.887920 177.451828,8.887920 184.146286,8.887920 
	C184.146286,15.568811 184.144119,22.172047 184.146835,28.775284 
	C184.150040,36.594894 184.078186,44.415562 184.182709,52.233849 
	C184.319901,62.496178 190.178711,66.089050 199.274796,66.778625 
	C204.198074,67.151863 209.264313,66.769890 214.163498,66.040100 
	C220.085815,65.157906 224.108536,61.669079 225.886093,54.990898 
	C226.631424,43.399559 226.898422,32.323322 226.980865,21.245710 
	C227.074310,8.687510 227.001465,8.820319 239.610489,8.911630 
	C243.184311,8.937511 244.115540,10.164400 244.059906,13.539345 
	C243.887665,23.988157 243.949905,34.442047 244.045029,44.892841 
	C244.060608,46.605820 244.702759,48.313091 245.055328,50.023003 
z"/>
<path fill="#2379BD" opacity="1.000000" stroke="none" 
	d="
M163.848282,78.955292 
	C163.384476,79.292435 162.921402,79.923294 162.456757,79.924446 
	C142.678009,79.973625 122.899117,79.966721 102.754440,79.966721 
	C102.754440,55.862457 102.754440,32.012039 102.754440,7.782561 
	C109.033730,7.782561 115.253098,7.782561 122.399391,7.782561 
	C122.399391,26.507044 122.399391,45.210861 122.852257,64.615501 
	C125.072487,65.545128 126.838608,65.960068 128.607407,65.971802 
	C138.360245,66.036530 148.119980,66.206833 157.864090,65.908249 
	C162.104965,65.778290 163.369659,67.230217 163.075653,71.273552 
	C162.891800,73.802040 163.561554,76.392593 163.848282,78.955292 
z"/>
<path fill="#1F75BB" opacity="1.000000" stroke="none" 
	d="
M249.987457,22.001198 
	C249.918930,17.971930 249.850388,13.942660 250.343170,9.459717 
	C270.644073,9.005303 290.383636,9.004388 310.123230,9.003886 
	C323.026825,9.003558 323.026825,9.003826 322.522339,21.986315 
	C315.901459,21.994524 309.745636,21.896187 303.596252,22.051163 
	C301.400665,22.106497 299.220490,22.775106 297.033295,23.163792 
	C296.963806,41.698639 296.894318,60.233486 296.169952,78.694771 
	C291.725494,78.438126 287.914307,77.919273 284.152100,78.161339 
	C279.939941,78.432343 278.784760,76.901520 278.845032,72.792816 
	C279.064697,57.825638 278.992401,42.852692 278.844238,27.883751 
	C278.828217,26.264507 277.602753,24.657232 276.938293,23.044407 
	C276.938293,23.044411 276.940491,22.977428 276.672668,22.679714 
	C267.599060,22.255066 258.793274,22.128132 249.987457,22.001198 
z"/>
<path fill="#1373BA" opacity="1.000000" stroke="none" 
	d="
M322.989929,21.979717 
	C323.026825,9.003826 323.026825,9.003558 310.123230,9.003886 
	C290.383636,9.004388 270.644073,9.005303 250.433151,9.003759 
	C250.797974,8.491450 251.632797,7.538439 252.470474,7.535923 
	C275.850250,7.465723 299.230347,7.488279 322.610352,7.520902 
	C323.238312,7.521778 323.865906,7.803404 324.703430,8.004467 
	C324.703430,12.873764 324.703430,17.648560 324.208954,22.419069 
	C323.515045,22.199675 323.273529,22.054653 322.989929,21.979717 
z"/>
<path fill="#257ABD" opacity="1.000000" stroke="none" 
	d="
M25.435059,24.561174 
	C22.317881,22.069902 19.479082,19.803854 16.254164,17.229588 
	C18.201628,15.056987 19.919065,13.141006 22.060577,10.751925 
	C26.516829,15.978726 30.785618,20.753750 34.688721,25.811007 
	C35.281471,26.579029 34.176582,28.657257 33.671402,30.983852 
	C30.356792,28.402521 28.035114,26.594458 25.435059,24.561174 
z"/>
<path fill="#408BC6" opacity="1.000000" stroke="none" 
	d="
M277.063385,23.495941 
	C277.602753,24.657232 278.828217,26.264507 278.844238,27.883751 
	C278.992401,42.852692 279.064697,57.825638 278.845032,72.792816 
	C278.784760,76.901520 279.939941,78.432343 284.152100,78.161339 
	C287.914307,77.919273 291.725494,78.438126 295.795837,78.944366 
	C289.999725,79.267532 283.922821,79.267532 277.188477,79.267532 
	C277.188477,60.751907 277.188477,42.349689 277.063385,23.495941 
z"/>
<path fill="#257ABD" opacity="1.000000" stroke="none" 
	d="
M25.448166,36.611946 
	C19.709288,34.858349 14.343481,33.255970 8.462433,31.499727 
	C9.637945,28.732119 10.632727,26.390018 11.806898,23.625566 
	C18.267570,26.951847 24.255987,30.034988 30.390490,33.193340 
	C30.222469,36.279686 29.210560,37.996357 25.448166,36.611946 
z"/>
<path fill="#257ABD" opacity="1.000000" stroke="none" 
	d="
M15.608753,62.647633 
	C13.329932,64.399986 11.792479,64.457275 10.886268,61.724979 
	C10.373915,60.180202 9.710035,58.685677 8.895082,56.609859 
	C15.787340,54.440060 22.445545,52.343945 29.047232,50.265621 
	C31.247267,53.083179 30.703758,54.723476 27.709118,56.136723 
	C23.685825,58.035423 19.848042,60.327213 15.608753,62.647633 
z"/>
<path fill="#267BBE" opacity="1.000000" stroke="none" 
	d="
M38.041027,7.048164 
	C39.720291,12.467217 41.304859,17.507601 43.023563,22.974674 
	C41.872700,23.583317 40.686230,24.210789 39.269974,24.959784 
	C35.696972,18.648174 32.290665,12.631034 28.656424,6.211248 
	C31.304947,5.074821 33.677189,4.056941 36.320850,2.922600 
	C36.934708,4.337600 37.440521,5.503547 38.041027,7.048164 
z"/>
<path fill="#257ABD" opacity="1.000000" stroke="none" 
	d="
M67.657562,64.360252 
	C66.298233,62.669228 65.167297,61.251366 63.571716,59.250965 
	C64.542770,58.312061 65.434372,57.449982 66.512291,56.407761 
	C72.330643,61.000725 77.649605,65.199463 83.410423,69.747009 
	C81.468483,71.828125 79.708572,73.714165 77.407677,76.179962 
	C74.087517,72.153763 70.986740,68.393593 67.657562,64.360252 
z"/>
<path fill="#257ABD" opacity="1.000000" stroke="none" 
	d="
M74.470276,12.224627 
	C79.368256,9.239182 79.490097,14.654552 82.781586,15.926955 
	C77.131454,20.668238 71.997704,24.976204 66.647217,29.466043 
	C65.393074,28.540369 64.250359,27.696934 62.960056,26.744570 
	C66.831879,21.839926 70.521339,17.166292 74.470276,12.224627 
z"/>
<path fill="#257ABD" opacity="1.000000" stroke="none" 
	d="
M28.338463,61.302605 
	C30.917953,59.772472 32.929939,55.278976 35.977432,60.653950 
	C31.805882,65.871498 27.595177,71.138016 23.018604,76.862144 
	C20.807959,74.902153 18.901854,73.212166 16.445133,71.034004 
	C20.509432,67.706642 24.282810,64.617447 28.338463,61.302605 
z"/>
<path fill="#257ABD" opacity="1.000000" stroke="none" 
	d="
M69.182068,33.252464 
	C75.239159,29.612505 81.137169,26.304399 87.419289,22.780855 
	C88.555405,25.519749 89.490364,27.773718 90.724236,30.748304 
	C84.142967,32.696033 77.900528,34.637341 71.576141,36.259079 
	C70.992119,36.408840 69.886436,34.524273 69.182068,33.252464 
z"/>
<path fill="#257ABD" opacity="1.000000" stroke="none" 
	d="
M60.736969,77.309265 
	C59.534000,73.455109 58.198116,70.033356 57.489433,66.486290 
	C57.197079,65.023003 58.251774,63.290588 58.693794,61.680580 
	C59.261368,61.738754 59.828941,61.796925 60.396515,61.855095 
	C63.680916,67.718887 66.965317,73.582680 70.537903,79.960983 
	C67.952309,81.130318 65.634003,82.178772 62.689999,83.510193 
	C61.997581,81.312286 61.427193,79.501732 60.736969,77.309265 
z"/>
<path fill="#257ABD" opacity="1.000000" stroke="none" 
	d="
M57.226440,19.138763 
	C58.954517,13.599134 60.571602,8.432177 62.337200,2.790678 
	C65.056366,3.957633 67.403831,4.965068 70.169525,6.151989 
	C67.168098,11.577164 64.495987,16.648815 61.546665,21.553782 
	C60.879757,22.662901 59.248764,23.192324 58.061554,23.988590 
	C57.746181,22.496204 57.430813,21.003819 57.226440,19.138763 
z"/>
<path fill="#267BBE" opacity="1.000000" stroke="none" 
	d="
M88.327309,54.747307 
	C88.714409,57.515102 88.714409,60.164577 88.714409,64.098007 
	C81.662964,60.232075 76.259781,57.361446 70.980804,54.278156 
	C70.176399,53.808334 69.947273,52.353561 69.452065,51.354351 
	C70.514206,50.927753 71.721642,49.937428 72.614502,50.167576 
	C77.764252,51.494961 82.839630,53.110840 88.327309,54.747307 
z"/>
<path fill="#2A7CBE" opacity="1.000000" stroke="none" 
	d="
M16.744152,40.391960 
	C19.650793,40.658237 22.118519,41.018627 24.590338,41.049286 
	C27.825872,41.089417 28.581285,42.654896 27.677517,45.900375 
	C21.130041,46.653168 14.465100,47.419460 7.390749,48.232826 
	C7.390749,45.478012 7.390749,43.086372 7.390749,40.339397 
	C10.277238,40.339397 13.292149,40.339397 16.744152,40.391960 
z"/>
<path fill="#257ABD" opacity="1.000000" stroke="none" 
	d="
M42.505211,67.504204 
	C40.750744,73.247780 39.149342,78.615463 37.408401,84.450851 
	C34.769299,83.358124 32.543411,82.436485 29.819500,81.308632 
	C32.786663,75.680588 35.455879,70.386459 38.397991,65.248596 
	C38.932579,64.315025 40.583427,64.020660 41.718956,63.431213 
	C42.032063,64.663574 42.345169,65.895943 42.505211,67.504204 
z"/>
<path fill="#267BBE" opacity="1.000000" stroke="none" 
	d="
M85.018074,46.918251 
	C81.097031,46.557873 77.156456,46.326664 73.269821,45.738819 
	C72.388718,45.605553 71.694855,44.234390 70.914803,43.433029 
	C71.739334,42.671928 72.477577,41.396244 73.403702,41.240944 
	C76.960159,40.644566 80.576843,40.407402 84.880875,40.336227 
	C87.379112,41.557693 90.517059,42.259895 90.708923,43.440781 
	C91.344772,47.354156 87.469444,45.271072 85.780334,46.301899 
	C85.503845,46.470642 85.271057,46.710995 85.018074,46.918251 
z"/>
<path fill="#026DB8" opacity="1.000000" stroke="none" 
	d="
M245.127258,49.557182 
	C244.702759,48.313091 244.060608,46.605820 244.045029,44.892841 
	C243.949905,34.442047 243.887665,23.988157 244.059906,13.539345 
	C244.115540,10.164400 243.184311,8.937511 239.610489,8.911630 
	C227.001465,8.820319 227.074310,8.687510 226.980865,21.245710 
	C226.898422,32.323322 226.631424,43.399559 226.095306,54.714729 
	C225.744705,39.381840 225.744705,23.810625 225.744705,7.933764 
	C232.279999,7.933764 238.335754,7.933764 245.199203,7.933764 
	C245.199203,21.633886 245.199203,35.362621 245.127258,49.557182 
z"/>
<path fill="#086FB8" opacity="1.000000" stroke="none" 
	d="
M163.918259,78.498161 
	C163.561554,76.392593 162.891800,73.802040 163.075653,71.273552 
	C163.369659,67.230217 162.104965,65.778290 157.864090,65.908249 
	C148.119980,66.206833 138.360245,66.036530 128.607407,65.971802 
	C126.838608,65.960068 125.072487,65.545128 123.010223,64.961998 
	C135.545090,64.544228 148.374847,64.480782 161.841110,64.654663 
	C162.899002,64.939758 163.320389,64.987541 163.741776,65.035324 
	C163.823929,69.370560 163.906082,73.705795 163.918259,78.498161 
z"/>
<path fill="#026DB8" opacity="1.000000" stroke="none" 
	d="
M504.998047,35.486137 
	C505.378845,36.761101 505.947784,38.496819 505.960632,40.236641 
	C506.042877,51.394859 506.095398,62.555229 505.945221,73.712029 
	C505.902161,76.910301 506.827545,78.239769 510.177368,78.058517 
	C514.495239,77.824883 518.834900,77.993752 523.642395,77.984200 
	C522.715210,78.444557 521.323120,79.261429 519.904114,79.311317 
	C515.118103,79.479599 510.322571,79.375389 504.929016,79.375389 
	C504.929016,64.707924 504.929016,50.328358 504.998047,35.486137 
z"/>
<path fill="#026DB8" opacity="1.000000" stroke="none" 
	d="
M526.535400,7.878613 
	C521.935486,8.368048 516.873657,9.130377 511.865173,8.868937 
	C506.937439,8.611712 505.637115,10.356917 505.897369,15.044727 
	C506.216827,20.798571 505.760193,26.595503 505.353058,32.673576 
	C505.067047,24.704424 505.067047,16.435495 505.067047,7.703185 
	C512.259949,7.703185 519.178406,7.703185 526.535400,7.878613 
z"/>
<path fill="#2379BD" opacity="1.000000" stroke="none" 
	d="
M85.398972,47.002213 
	C85.271057,46.710995 85.503845,46.470642 85.780334,46.301899 
	C87.469444,45.271072 91.344772,47.354156 90.708923,43.440781 
	C90.517059,42.259895 87.379112,41.557693 85.309845,40.372555 
	C87.242218,39.779457 89.455421,39.450020 92.040787,39.065186 
	C92.040787,42.128872 92.040787,44.669361 92.040787,47.700813 
	C89.842316,47.484989 87.811096,47.285583 85.398972,47.002213 
z"/>
<path fill="#026DB8" opacity="1.000000" stroke="none" 
	d="
M322.522339,21.986315 
	C323.273529,22.054653 323.515045,22.199675 323.832703,22.592365 
	C315.287537,22.864843 306.624146,22.959743 297.497009,23.109217 
	C299.220490,22.775106 301.400665,22.106497 303.596252,22.051163 
	C309.745636,21.896187 315.901459,21.994524 322.522339,21.986315 
z"/>
<path fill="#026DB8" opacity="1.000000" stroke="none" 
	d="
M250.173676,22.397263 
	C258.793274,22.128132 267.599060,22.255066 276.705261,22.671776 
	C268.123718,22.905478 259.241791,22.849403 250.173676,22.397263 
z"/>
<path fill="#026DB8" opacity="1.000000" stroke="none" 
	d="
M244.882904,56.528728 
	C244.689560,55.421570 244.597122,53.910664 244.780289,52.187492 
	C245.031860,53.358479 245.007843,54.741730 244.882904,56.528728 
z"/>
<path fill="#2379BD" opacity="1.000000" stroke="none" 
	d="
M163.678131,64.775406 
	C163.320389,64.987541 162.899002,64.939758 162.303741,64.769180 
	C162.624725,64.602753 163.119614,64.559113 163.678131,64.775406 
z"/>
<path fill="#FCFDFE" opacity="1.000000" stroke="none" 
	d="
M460.996460,20.679819 
	C472.991241,23.896778 478.836548,32.426239 477.745178,44.615685 
	C476.571075,57.729450 469.377991,65.336105 457.209686,66.095078 
	C454.075989,66.290527 450.868744,66.244186 447.765259,65.809486 
	C438.815643,64.555908 433.169006,58.758049 431.812714,49.811199 
	C431.738007,49.318188 431.684784,48.821907 431.621887,48.327106 
	C429.044312,28.051611 440.418854,17.157070 460.996460,20.679819 
z"/>
<path fill="#FCFDFE" opacity="1.000000" stroke="none" 
	d="
M372.765259,22.019924 
	C375.852570,22.410191 378.883972,22.114496 380.975494,23.376501 
	C383.215576,24.728149 385.344879,27.305151 386.118103,29.785210 
	C387.108765,32.962811 385.585266,36.054806 382.220154,37.558605 
	C380.873505,38.160370 379.360382,38.710339 377.917542,38.724506 
	C367.791351,38.823936 357.663757,38.777203 347.242798,38.777203 
	C347.242798,33.296860 347.242798,27.911718 347.242798,22.019602 
	C355.729858,22.019602 364.012756,22.019602 372.765259,22.019924 
z"/>
</svg>