<?xml version="1.0" standalone="no"?>
<!DOCTYPE svg PUBLIC "-//W3C//DTD SVG 20010904//EN"
 "http://www.w3.org/TR/2001/REC-SVG-20010904/DTD/svg10.dtd">
<svg version="1.0" xmlns="http://www.w3.org/2000/svg"
 width="256.000000pt" height="96.000000pt" viewBox="0 0 256.000000 96.000000"
 preserveAspectRatio="xMidYMid meet">
<metadata>
Created by potrace 1.16, written by Peter Selinger 2001-2019
</metadata>
<g transform="translate(0.000000,96.000000) scale(0.100000,-0.100000)"
fill="#000000" stroke="none">
<path d="M0 772 l0 -187 73 -20 72 -20 3 -118 c1 -64 1 -117 -1 -117 -2 0 -36
11 -75 24 l-72 25 0 -180 0 -179 158 1 157 1 -65 22 -65 23 -3 113 -3 112 28
-6 c15 -4 52 -14 81 -22 l52 -15 0 -115 c0 -95 3 -114 15 -114 12 0 15 19 15
113 l0 114 74 21 c41 12 77 22 80 22 4 0 5 -50 4 -112 l-3 -111 -65 -23 -65
-22 1083 -1 1082 -1 0 480 0 480 -712 -1 c-678 -1 -710 -2 -661 -17 28 -10 55
-20 58 -23 4 -4 -27 -15 -68 -24 -70 -17 -77 -17 -146 0 -40 9 -69 20 -66 23
3 4 29 14 58 23 l52 17 -155 0 -155 0 47 -16 c26 -9 50 -20 53 -24 7 -7 -46
-24 -108 -34 -42 -7 -174 23 -160 36 4 5 31 15 58 23 47 15 28 16 -302 16
l-353 1 0 -188z m656 101 l64 -17 0 -113 c0 -80 -3 -113 -12 -113 -6 0 -42 10
-80 22 l-68 22 0 114 c0 100 2 113 16 108 8 -3 44 -14 80 -23z m244 -88 l0
-114 -66 -21 c-36 -11 -70 -20 -75 -20 -5 0 -9 51 -9 113 l0 113 68 21 c37 11
70 21 75 22 4 0 7 -51 7 -114z m123 90 l67 -18 0 -113 c0 -81 -3 -114 -12
-114 -6 0 -42 10 -80 22 l-68 22 0 114 c0 87 3 113 13 110 6 -3 42 -13 80 -23z
m257 -88 l0 -113 -68 -22 c-38 -12 -74 -22 -80 -22 -9 0 -12 33 -12 113 l0
112 73 22 c39 12 75 22 80 22 4 1 7 -50 7 -112z m-1037 -158 c38 -11 66 -24
61 -28 -5 -5 -38 -15 -74 -24 -60 -15 -70 -14 -127 1 -34 10 -64 20 -68 24 -6
6 97 46 124 47 8 1 45 -8 84 -20z m383 -3 l69 -23 -60 -17 c-33 -10 -66 -19
-73 -22 -14 -4 -127 22 -151 36 -9 5 7 14 50 28 83 26 83 26 165 -2z m-286
-155 l0 -109 -67 -23 c-38 -12 -74 -24 -80 -27 -10 -3 -13 23 -13 112 l0 115
63 20 c103 32 97 37 97 -88z m120 91 l65 -19 3 -118 c2 -92 0 -116 -10 -113
-7 3 -43 15 -80 27 l-68 23 0 109 c0 81 3 109 13 109 6 0 41 -8 77 -18z m260
-91 l0 -109 -67 -23 c-38 -12 -74 -24 -81 -27 -10 -3 -12 21 -10 113 l3 118
55 17 c103 33 100 36 100 -89z m-283 -157 c35 -11 63 -21 63 -24 0 -3 -32 -14
-70 -24 -67 -17 -73 -17 -145 0 -41 10 -72 20 -69 23 11 12 129 50 144 47 8
-2 43 -12 77 -22z"/>
</g>
</svg>
