<?xml version="1.0" standalone="no"?>
<!DOCTYPE svg PUBLIC "-//W3C//DTD SVG 20010904//EN"
 "http://www.w3.org/TR/2001/REC-SVG-20010904/DTD/svg10.dtd">
<svg version="1.0" xmlns="http://www.w3.org/2000/svg"
 width="256.000000pt" height="256.000000pt" viewBox="0 0 256.000000 256.000000"
 preserveAspectRatio="xMidYMid meet">

<g transform="translate(0.000000,256.000000) scale(0.100000,-0.100000)"
fill="#000000" stroke="none">
<path d="M156 2523 c3 -21 49 -537 103 -1146 55 -610 101 -1110 103 -1112 5
-6 888 -256 908 -257 8 -1 221 56 473 127 413 116 457 131 457 149 0 12 45
525 100 1140 55 616 100 1123 100 1128 0 4 -506 8 -1124 8 l-1124 0 4 -37z
m1831 -485 c-4 -29 -10 -92 -13 -140 l-7 -88 -544 0 c-514 0 -544 -1 -539 -17
2 -10 7 -58 11 -108 3 -49 8 -107 11 -127 l6 -38 515 0 515 0 -6 -37 c-4 -21
-22 -218 -41 -437 -19 -220 -36 -400 -37 -401 -9 -5 -566 -155 -578 -155 -20
0 -573 151 -582 159 -6 5 -38 360 -38 424 l0 27 139 0 c162 0 146 13 156 -131
l7 -96 154 -41 155 -42 158 42 157 42 13 141 c7 77 15 157 18 178 l6 37 -492
0 c-389 0 -491 3 -491 13 0 7 -16 187 -35 400 -19 213 -35 401 -35 417 l0 30
711 0 712 0 -6 -52z"/>
</g>
</svg>
