<?xml version="1.0" standalone="no"?>
<!DOCTYPE svg PUBLIC "-//W3C//DTD SVG 20010904//EN"
 "http://www.w3.org/TR/2001/REC-SVG-20010904/DTD/svg10.dtd">
<svg version="1.0" xmlns="http://www.w3.org/2000/svg"
 width="397.000000pt" height="560.000000pt" viewBox="0 0 397.000000 560.000000"
 preserveAspectRatio="xMidYMid meet">

<g transform="translate(0.000000,560.000000) scale(0.100000,-0.100000)"
fill="#000000" stroke="none">
<path d="M1630 5355 l0 -245 -180 0 -180 0 0 -130 0 -130 305 0 305 0 0 375 0
375 -125 0 -125 0 0 -245z"/>
<path d="M2000 5514 l0 -86 113 -122 c62 -66 137 -148 166 -181 l54 -60 -44
-7 c-24 -3 -99 -7 -166 -7 l-123 -1 0 -100 0 -100 353 2 352 3 3 85 2 85 -166
178 c-91 98 -163 181 -160 185 4 3 74 8 156 10 l150 4 0 99 0 99 -345 0 -345
0 0 -86z"/>
</g>
</svg>
