<?xml version="1.0" standalone="no"?>
<!DOCTYPE svg PUBLIC "-//W3C//DTD SVG 20010904//EN"
 "http://www.w3.org/TR/2001/REC-SVG-20010904/DTD/svg10.dtd">
<svg version="1.0" xmlns="http://www.w3.org/2000/svg"
 width="935.000000pt" height="700.000000pt" viewBox="0 0 935.000000 700.000000"
 preserveAspectRatio="xMidYMid meet">
<metadata>
Created by potrace 1.16, written by Peter Selinger 2001-2019
</metadata>
<g transform="translate(0.000000,700.000000) scale(0.100000,-0.100000)"
fill="#000000" stroke="none">
<path d="M0 3500 l0 -3500 4675 0 4675 0 0 3500 0 3500 -4675 0 -4675 0 0
-3500z m1900 3350 c1277 -28 1948 -118 2664 -355 157 -52 527 -199 526 -209 0
0 -9 -44 -20 -96 -11 -52 -20 -128 -20 -168 0 -143 69 -404 133 -505 72 -113
207 -204 394 -267 86 -28 100 -30 249 -30 88 0 199 -5 249 -10 155 -18 385
-85 631 -184 l109 -44 3 35 3 35 77 -74 c58 -56 94 -81 145 -103 37 -15 70
-26 73 -23 3 3 0 27 -7 52 -6 26 -9 49 -6 53 4 3 18 -10 33 -28 50 -62 148
-149 224 -201 86 -58 92 -54 66 47 -9 32 -13 61 -10 64 3 3 24 -16 47 -44 22
-27 86 -96 143 -152 92 -93 104 -102 130 -97 16 3 58 6 93 7 l63 2 88 -142
c48 -78 102 -159 119 -180 34 -41 40 -77 15 -87 -22 -8 -9 -24 85 -98 91 -73
165 -111 266 -137 43 -12 80 -23 82 -25 3 -2 -28 -27 -69 -54 -40 -27 -95 -70
-123 -94 l-49 -45 -70 74 c-105 113 -247 213 -423 299 -228 111 -250 136 -252
290 l-1 50 -202 89 c-522 227 -960 398 -1098 428 -82 18 -129 21 -345 21 -283
0 -337 -9 -490 -83 -211 -101 -403 -316 -491 -549 -58 -154 -76 -238 -81 -371
-10 -231 38 -387 188 -611 167 -250 384 -378 719 -425 62 -8 277 -22 479 -30
397 -16 584 -32 816 -71 716 -119 1416 -446 1745 -814 159 -179 300 -416 366
-614 28 -87 65 -248 59 -255 -3 -2 -6 2 -9 10 -38 126 -55 171 -100 264 -70
148 -79 163 -165 278 -121 163 -328 358 -474 446 l-38 23 7 -81 c7 -78 6 -81
-15 -81 -20 0 -21 5 -21 75 0 41 -4 75 -8 75 -5 0 -20 -33 -34 -73 -36 -102
-50 -100 -87 15 l-30 93 -1 -88 c0 -69 -3 -89 -15 -94 -9 -3 -18 -3 -22 0 -3
4 -2 58 2 122 7 111 8 115 30 115 19 0 27 -12 51 -80 16 -44 32 -76 35 -72 4
4 16 30 27 59 l20 52 -42 25 c-55 32 -208 106 -276 133 -171 69 -436 144 -560
159 l-35 4 25 -17 c44 -32 214 -161 245 -187 l30 -25 -77 -1 c-63 0 -78 -3
-78 -15 0 -23 -10 -19 -101 36 -130 79 -347 183 -466 222 -125 42 -315 82
-458 97 -55 5 -255 15 -445 20 -206 6 -387 17 -449 26 -298 45 -580 182 -776
379 -246 245 -359 557 -325 901 36 365 113 605 258 800 72 98 150 165 310 269
67 43 122 82 122 87 0 4 -4 16 -10 26 -42 75 -192 450 -256 642 -26 80 -62
201 -79 270 l-32 125 -109 43 c-336 133 -940 306 -1284 368 -14 2 -68 13 -120
24 -115 24 -110 23 -340 61 -656 107 -1562 182 -2210 182 -179 0 -320 2 -314
4 16 5 514 20 754 21 107 1 386 -3 620 -8z m2922 -756 l66 -7 17 -89 c10 -49
16 -91 14 -93 -3 -2 -76 0 -164 5 -970 56 -1889 36 -2954 -65 -165 -16 -259
-21 -266 -15 -7 6 -14 9 -16 7 -2 -1 -3 0 -1 2 1 3 9 6 17 7 8 1 13 -1 10 -5
-2 -4 2 -8 10 -8 10 0 12 4 5 12 -5 7 -6 16 -2 20 4 5 0 4 -8 -1 -19 -11 -32
-12 -46 -2 -19 14 -575 -73 -1039 -162 -114 -22 -214 -40 -223 -39 -32 1 144
40 403 89 846 159 1844 269 2915 320 485 24 1133 36 1262 24z m-3326 -260 c1
-9 0 -13 -4 -10 -3 4 -7 14 -8 22 -1 9 0 13 4 10 3 -4 7 -14 8 -22z m3476
-124 c15 -46 28 -89 28 -95 0 -6 -16 -9 -40 -7 -121 12 -788 -61 -1040 -113
-14 -3 -41 -8 -60 -11 -312 -50 -968 -231 -1349 -373 -74 -27 -138 -48 -143
-45 -4 3 -8 0 -8 -5 0 -6 -5 -11 -11 -11 -5 0 -8 4 -4 9 7 13 -14 25 -48 27
-34 3 -263 -90 -529 -216 -104 -48 -188 -86 -188 -83 0 4 211 107 390 190 307
142 802 328 1220 458 687 213 1399 365 1689 361 l64 -1 29 -85z m-4755 -56
c-3 -3 -12 -4 -19 -1 -8 3 -5 6 6 6 11 1 17 -2 13 -5z m6130 -80 c533 -193
1038 -499 1398 -846 l108 -103 -47 -9 -46 -8 -110 106 c-121 116 -303 265
-456 372 -228 159 -612 368 -894 485 -147 62 -119 63 47 3z m-4042 -503 c-3
-5 -1 -12 4 -15 5 -4 11 2 13 11 2 12 6 14 10 7 4 -6 -2 -20 -14 -30 -12 -11
-18 -14 -15 -7 4 6 3 14 -3 18 -10 6 -5 25 6 25 3 0 3 -4 -1 -9z m-980 -2873
c3 -13 6 -66 8 -118 l2 -94 45 114 46 115 174 0 c158 0 175 -2 178 -17 2 -10
-37 -110 -87 -223 -50 -112 -91 -209 -91 -215 0 -6 45 -123 101 -260 83 -207
98 -253 89 -270 -10 -19 -20 -20 -183 -20 -95 0 -179 4 -187 9 -7 6 -31 61
-51 123 l-38 113 0 -107 c-1 -83 -4 -110 -17 -122 -13 -13 -44 -16 -184 -16
-157 0 -170 1 -180 19 -11 21 -15 947 -4 975 5 14 32 16 190 16 182 0 184 0
189 -22z m1184 -10 c15 -48 181 -911 181 -941 0 -14 -7 -28 -16 -31 -9 -3 -92
-6 -184 -6 -124 0 -171 3 -177 13 -4 6 -12 44 -18 82 l-10 70 -36 3 -37 3 -4
-69 c-5 -104 -1 -102 -198 -102 -93 0 -175 3 -184 6 -10 4 -16 18 -16 37 0 38
147 890 161 935 l11 32 258 0 258 0 11 -32z m611 6 c6 -15 10 -173 10 -379 l0
-354 93 -3 92 -3 0 -120 0 -120 -274 -3 c-244 -2 -276 -1 -293 14 -17 16 -18
43 -18 490 0 260 3 479 6 488 5 14 32 16 190 16 l184 0 10 -26z m650 0 c6 -15
10 -208 10 -479 0 -271 -4 -464 -10 -479 l-10 -26 -165 0 c-96 0 -175 4 -186
10 -18 10 -19 26 -19 499 0 268 3 491 7 494 3 4 87 7 185 7 l178 0 10 -26z
m830 -354 l5 -375 95 -5 95 -5 0 -120 0 -120 -277 -3 c-241 -2 -278 0 -292 14
-14 14 -16 70 -16 489 0 260 3 481 6 489 6 14 29 16 193 14 l186 -3 5 -375z
m648 -119 c2 -389 0 -496 -10 -503 -22 -13 -342 -10 -356 4 -9 9 -12 133 -12
498 0 268 3 490 7 494 4 3 88 5 187 4 l181 -3 3 -494z m498 379 c30 -63 62
-133 71 -155 l18 -40 5 155 5 155 151 3 c119 2 154 0 163 -11 8 -11 10 -145 9
-503 l-3 -489 -156 -3 c-189 -3 -176 -13 -247 178 l-51 135 -1 -138 c0 -76 -5
-147 -10 -158 -10 -17 -23 -19 -155 -19 -117 0 -146 3 -159 16 -14 14 -16 72
-16 489 0 260 3 481 6 489 6 14 27 16 162 14 l155 -3 53 -115z m916 118 c1 -2
5 -183 8 -403 4 -347 7 -400 20 -400 13 0 16 53 20 400 l5 400 180 3 c160 2
181 1 192 -15 21 -27 18 -754 -2 -814 -47 -137 -208 -209 -434 -196 -149 9
-257 53 -316 132 -53 68 -54 81 -55 487 0 207 3 383 6 392 5 14 32 16 190 16
101 0 185 -1 186 -2z m855 -38 c6 -19 18 -57 26 -85 l13 -50 28 88 27 87 153
0 c125 0 156 -3 166 -15 11 -13 3 -51 -44 -215 -31 -110 -56 -208 -56 -218 0
-9 36 -125 80 -257 44 -132 80 -249 80 -260 0 -41 -17 -45 -174 -45 -83 0
-156 4 -162 8 -19 12 -37 54 -65 152 -15 52 -28 92 -28 88 -4 -42 -45 -226
-53 -235 -16 -19 -341 -18 -357 1 -9 11 2 75 47 279 l59 265 -59 211 c-33 116
-58 218 -54 226 5 13 32 15 183 13 l177 -3 13 -35z m683 25 c0 -10 -11 -15
-35 -15 l-35 0 0 -105 c0 -98 -1 -105 -20 -105 -19 0 -20 7 -20 105 l0 105
-35 0 c-24 0 -35 5 -35 15 0 12 17 15 90 15 73 0 90 -3 90 -15z m-135 -225
c303 -341 507 -689 640 -1095 60 -180 87 -297 110 -468 14 -109 21 -327 10
-316 -5 6 -17 114 -16 151 1 15 -3 29 -8 33 -5 3 -8 17 -5 30 2 14 0 25 -5 25
-5 0 -8 8 -7 17 4 29 -23 137 -75 299 -161 500 -408 927 -735 1274 l-66 69 13
55 c10 46 15 54 28 46 9 -5 62 -59 116 -120z m-7069 -1075 c-8 -33 3 -32 32 3
l23 27 -6 -27 c-3 -16 -1 -28 5 -28 5 0 10 -9 10 -20 0 -17 -6 -19 -47 -17
-54 2 -66 21 -39 62 21 32 30 32 22 0z m134 -16 c0 -12 7 -19 20 -19 11 0 20
-4 20 -10 0 -5 -9 -10 -20 -10 -17 0 -20 -7 -20 -45 0 -32 4 -45 14 -45 8 0
16 9 18 20 4 28 23 21 23 -7 -1 -13 5 -23 12 -23 21 0 18 136 -3 144 -22 8 -7
26 22 26 19 0 24 -5 24 -25 0 -22 4 -25 39 -25 44 0 51 -10 51 -71 0 -26 5
-42 15 -45 41 -16 3 -23 -112 -21 l-128 2 -3 58 c-2 42 -7 57 -17 57 -8 0 -15
5 -15 10 0 6 7 10 15 10 8 0 15 8 15 18 0 10 3 22 6 25 11 10 24 -3 24 -24z
m848 8 c2 -12 -3 -17 -17 -17 -12 0 -21 6 -21 13 0 31 32 34 38 4z m212 -13
c0 -8 9 -14 20 -14 11 0 20 -4 20 -10 0 -5 -9 -10 -20 -10 -17 0 -20 -7 -20
-45 0 -45 16 -63 22 -25 2 12 7 20 12 20 5 -1 17 13 25 31 21 44 60 58 95 35
16 -10 26 -26 26 -41 0 -23 -4 -25 -45 -25 -48 0 -59 -16 -29 -41 14 -11 19
-10 34 9 22 27 40 29 40 4 0 -28 -21 -42 -61 -42 -27 0 -42 6 -52 20 l-14 21
-6 -21 c-4 -14 -13 -20 -34 -20 -41 0 -53 17 -53 71 0 28 -5 50 -12 53 -10 5
-10 7 0 12 6 3 12 14 12 23 0 10 3 21 7 24 9 9 33 -12 33 -29z m1050 11 c0
-18 4 -23 15 -19 27 11 61 -5 74 -33 l12 -27 12 24 c28 55 117 43 117 -15 0
-23 -4 -25 -45 -25 -48 0 -59 -16 -29 -41 14 -11 19 -10 34 9 22 27 40 28 40
3 0 -28 -24 -43 -67 -39 -27 2 -41 9 -49 26 l-11 23 -17 -26 c-14 -21 -24 -25
-66 -25 l-50 0 0 79 c0 61 -3 80 -15 85 -26 10 -16 26 15 26 25 0 30 -4 30
-25z m1140 -6 c0 -12 7 -19 20 -19 11 0 20 -4 20 -10 0 -5 -9 -10 -20 -10 -17
0 -20 -7 -20 -45 0 -50 15 -59 30 -19 12 31 34 21 26 -12 -5 -17 -2 -24 9 -24
12 0 15 14 15 70 0 56 -3 70 -15 70 -8 0 -15 7 -15 15 0 10 10 15 30 15 25 0
30 -4 30 -25 0 -22 4 -25 33 -25 45 0 57 -15 57 -72 0 -36 4 -48 15 -48 8 0
15 -5 15 -10 0 -7 -44 -10 -127 -8 l-128 3 -3 58 c-2 42 -7 57 -17 57 -8 0
-15 5 -15 10 0 6 7 10 15 10 8 0 15 8 15 18 0 10 3 22 6 25 11 10 24 -3 24
-24z m2540 8 c0 -20 4 -23 29 -19 59 8 94 -71 55 -126 -12 -18 -25 -22 -65
-22 l-49 0 0 79 c0 61 -3 80 -15 85 -26 10 -16 26 15 26 25 0 30 -4 30 -23z
m160 -56 c0 -61 3 -80 15 -85 30 -11 14 -26 -30 -26 -44 0 -60 15 -30 26 11 5
15 22 15 70 0 50 -3 64 -15 64 -8 0 -15 7 -15 15 0 10 10 15 30 15 l30 0 0
-79z m310 48 c0 -12 7 -19 19 -19 11 0 23 -4 26 -10 4 -6 -5 -10 -19 -10 -24
0 -26 -3 -26 -45 0 -32 4 -45 14 -45 8 0 16 10 18 23 2 12 9 21 16 19 6 -1 12
7 12 18 0 49 74 78 112 43 23 -21 25 -95 2 -117 -20 -21 -73 -20 -96 1 -17 15
-19 15 -31 -1 -9 -12 -23 -17 -42 -14 -29 3 -30 5 -33 61 -2 42 -7 57 -17 57
-8 0 -15 5 -15 10 0 6 7 10 15 10 8 0 15 8 15 18 0 10 3 22 6 25 11 10 24 -3
24 -24z m358 4 c3 -19 10 -23 37 -23 41 0 55 -20 55 -79 0 -23 5 -41 10 -41 6
0 10 -4 10 -10 0 -5 -18 -10 -40 -10 -40 0 -53 13 -25 24 19 7 20 56 1 81 -12
16 -16 17 -30 6 -18 -15 -23 -91 -6 -91 6 0 10 -4 10 -10 0 -5 -18 -10 -40
-10 -40 0 -53 13 -25 24 11 4 15 22 15 71 0 51 -3 65 -15 65 -8 0 -15 7 -15
16 0 26 54 14 58 -13z m659 11 c6 -16 -15 -74 -27 -74 -15 0 -19 13 -9 31 7
13 6 19 -1 19 -6 0 -16 -11 -22 -25 -6 -14 -14 -25 -18 -25 -15 0 -19 14 -7
28 9 12 9 16 0 19 -7 3 -13 13 -13 23 0 15 8 18 46 18 30 0 47 -4 51 -14z
m-6937 -44 c11 -11 20 -29 20 -40 0 -17 -7 -20 -50 -20 -55 0 -68 -19 -28 -41
18 -10 24 -8 40 10 9 13 22 20 28 16 30 -18 -10 -55 -60 -55 -45 0 -60 18 -60
72 0 38 7 50 35 66 30 17 53 14 75 -8z m258 -68 c2 -45 7 -82 12 -82 6 0 10
-7 10 -15 0 -11 -11 -15 -40 -15 -29 0 -40 4 -40 15 0 8 5 15 10 15 6 0 10 4
10 8 0 5 -14 9 -31 9 -41 0 -59 25 -59 79 0 54 27 76 85 71 l40 -4 3 -81z
m380 72 c12 -8 22 -26 22 -40 0 -22 -4 -24 -50 -24 -52 0 -60 -8 -34 -34 21
-21 31 -20 46 4 16 26 38 26 38 0 0 -23 -28 -40 -69 -40 -59 0 -82 80 -36 125
28 29 51 31 83 9z m402 -4 c14 -21 12 -36 -5 -50 -19 -15 -38 -3 -32 21 6 23
-18 26 -27 3 -11 -29 -6 -72 9 -78 30 -11 14 -26 -30 -26 -33 0 -45 4 -45 15
0 8 7 15 15 15 11 0 15 12 15 45 0 33 -4 45 -15 45 -14 0 -20 12 -11 21 3 2
30 4 61 4 39 0 59 -5 65 -15z m390 0 c24 -24 26 -77 4 -108 -11 -16 -25 -22
-53 -22 -44 0 -60 14 -67 62 -12 70 68 116 116 68z m696 -5 l16 -25 20 25 c40
51 118 19 118 -48 0 -18 -7 -43 -16 -55 -23 -33 -93 -28 -111 8 -7 14 -13 20
-13 13 0 -22 -32 -43 -65 -43 -63 0 -88 78 -40 125 32 32 70 32 91 0z m312 14
c58 2 72 -11 72 -66 0 -30 5 -45 15 -49 41 -16 3 -24 -115 -24 -80 0 -130 4
-130 10 0 6 7 10 15 10 11 0 15 12 15 50 0 40 -3 50 -17 50 -11 0 -13 3 -7 9
10 10 83 19 98 12 5 -2 29 -3 54 -2z m212 -9 c11 -11 20 -29 20 -40 0 -17 -7
-20 -50 -20 -55 0 -68 -19 -28 -41 18 -10 24 -8 39 12 14 19 21 21 30 12 21
-21 -17 -53 -62 -53 -44 0 -59 19 -59 72 0 68 66 102 110 58z m600 0 c11 -11
20 -29 20 -40 0 -17 -7 -20 -50 -20 -54 0 -69 -19 -30 -40 15 -8 23 -6 40 12
26 29 47 12 24 -20 -20 -30 -88 -31 -104 -3 -14 27 -13 84 3 103 25 32 69 36
97 8z m328 5 c7 -3 12 -23 12 -55 0 -36 4 -52 15 -56 41 -16 3 -24 -110 -24
-113 0 -151 8 -110 24 10 3 15 19 15 46 0 27 -5 43 -15 46 -28 11 -15 23 28
26 46 3 145 -1 165 -7z m162 -5 c24 -24 26 -77 4 -108 -11 -16 -25 -22 -53
-22 -44 0 -60 14 -67 62 -12 70 68 116 116 68z m147 8 c7 -6 13 -20 14 -32 l0
-21 9 22 c10 24 39 43 68 43 22 0 47 -25 56 -57 7 -22 5 -23 -43 -23 -37 0
-51 -4 -51 -14 0 -34 51 -43 64 -10 8 20 26 17 26 -4 0 -28 -21 -42 -61 -42
-40 0 -54 11 -64 52 -5 18 -12 25 -22 21 -20 -8 -35 18 -20 35 9 12 8 14 -8
11 -16 -3 -21 -14 -23 -47 -2 -25 1 -42 7 -42 6 0 11 -7 11 -15 0 -11 -11 -15
-40 -15 -29 0 -40 4 -40 15 0 8 7 15 15 15 25 0 20 77 -5 90 -11 6 -19 14 -16
18 7 11 110 11 123 0z m535 -5 c9 -10 19 -28 22 -39 7 -24 -9 -74 -27 -86 -21
-13 -70 -9 -89 9 -25 23 -24 87 2 113 25 25 72 26 92 3z m396 1 c17 -12 22
-26 23 -62 1 -26 3 -39 6 -29 6 22 29 17 27 -6 -1 -9 4 -13 12 -10 21 8 19 93
-2 93 -9 0 -14 5 -12 11 4 12 81 21 110 13 9 -3 20 -14 23 -25 7 -21 7 -21 21
-1 32 46 114 30 114 -23 0 -23 -3 -25 -50 -25 -52 0 -60 -8 -34 -34 21 -21 31
-20 46 4 16 25 38 26 38 2 0 -28 -21 -42 -61 -42 -40 0 -69 26 -69 62 0 12 -7
17 -22 15 -18 -2 -23 3 -21 21 3 24 -7 28 -25 10 -18 -18 -16 -78 3 -78 8 0
15 -7 15 -15 0 -13 -17 -15 -117 -13 l-118 3 0 35 c0 31 3 35 38 43 36 9 53
37 22 37 -8 0 -15 -7 -15 -15 0 -8 -9 -15 -20 -15 -25 0 -27 35 -2 49 24 15
44 13 70 -5z m530 0 c17 -12 22 -26 23 -62 1 -26 3 -39 6 -29 2 9 8 17 13 17
12 0 18 -21 12 -43 -4 -15 -14 -17 -76 -15 l-71 3 0 35 c0 31 3 35 38 43 36 9
53 37 22 37 -8 0 -15 -7 -15 -15 0 -8 -9 -15 -20 -15 -25 0 -27 35 -2 49 24
15 44 13 70 -5z m402 -4 c11 -11 20 -29 20 -40 0 -17 -7 -20 -50 -20 -55 0
-68 -19 -28 -41 18 -10 24 -8 39 12 14 19 21 21 30 12 21 -21 -17 -53 -62 -53
-44 0 -59 19 -59 72 0 68 66 102 110 58z m748 4 c12 -8 22 -26 22 -39 0 -22
-5 -24 -51 -27 l-51 -3 21 -25 21 -25 19 23 c23 27 41 29 41 4 0 -28 -21 -42
-61 -42 -67 0 -93 76 -44 125 28 29 51 31 83 9z m133 6 c15 -8 19 -22 20 -63
1 -29 3 -44 6 -34 5 21 33 23 33 2 0 -8 7 -15 15 -15 11 0 15 11 15 41 0 33
-4 42 -20 46 -38 10 -15 27 40 30 60 3 80 -8 80 -44 0 -26 -25 -42 -42 -25 -8
8 -7 16 3 28 12 14 11 16 -6 13 -16 -3 -21 -14 -23 -47 -2 -25 1 -42 7 -42 6
0 11 -7 11 -15 0 -12 -19 -14 -111 -12 -94 2 -114 5 -123 20 -15 23 1 47 43
61 35 12 43 29 17 34 -9 2 -16 -3 -16 -12 0 -9 -8 -16 -20 -16 -13 0 -20 7
-20 20 0 34 51 51 91 30z m-6301 -48 c0 -55 14 -76 42 -61 23 13 26 89 3 89
-8 0 -15 5 -15 10 0 6 14 10 30 10 30 0 30 -1 30 -54 0 -56 8 -67 43 -58 22 6
25 80 2 88 -25 10 -17 24 15 24 l30 0 0 -60 c0 -33 4 -60 10 -60 6 0 10 -4 10
-10 0 -15 -203 -13 -218 2 -7 7 -12 34 -12 60 0 36 -4 48 -15 48 -8 0 -15 5
-15 10 0 6 14 10 30 10 29 0 30 -1 30 -48z m890 39 c0 -5 -4 -11 -9 -13 -4 -1
-3 -19 4 -38 l12 -35 15 35 c12 29 12 36 1 38 -29 7 -11 22 27 22 42 0 47 -4
29 -23 -6 -7 -28 -46 -48 -87 -36 -75 -36 -75 -76 -75 -34 0 -40 3 -43 23 -3
16 2 22 17 22 11 0 21 -8 23 -17 3 -15 4 -15 20 1 16 16 16 20 -3 69 -11 29
-27 57 -35 63 -23 18 -17 24 26 24 22 0 40 -4 40 -9z m290 -45 c0 -36 4 -56
13 -59 22 -8 37 7 44 46 4 28 2 38 -11 43 -26 10 -18 24 14 24 30 0 30 -1 30
-55 0 -30 5 -55 10 -55 6 0 10 -7 10 -15 0 -13 -12 -15 -67 -13 l-68 3 -3 53
c-2 35 -8 55 -18 59 -24 9 -15 23 16 23 30 0 30 -1 30 -54z m2710 45 c0 -5 -5
-11 -10 -13 -7 -2 -6 -16 3 -42 l13 -38 12 38 c7 25 8 40 2 42 -25 9 -6 22 30
22 39 0 54 -13 27 -23 -7 -3 -24 -33 -38 -67 -31 -80 -52 -102 -92 -98 -24 2
-33 8 -35 26 -3 17 2 22 17 22 13 0 21 -6 21 -16 0 -14 3 -14 15 -4 8 7 15 18
15 25 0 26 -43 115 -56 115 -8 0 -14 5 -14 10 0 6 20 10 45 10 25 0 45 -4 45
-9z m280 -40 c0 -31 5 -53 15 -61 23 -19 45 5 45 51 0 28 -4 39 -15 39 -8 0
-15 5 -15 10 0 6 14 10 30 10 30 0 30 -1 30 -55 0 -42 3 -55 15 -55 8 0 15 -7
15 -15 0 -12 -14 -15 -65 -15 -74 0 -85 10 -85 79 0 30 -4 41 -15 41 -8 0 -15
5 -15 10 0 6 14 10 30 10 29 0 30 -1 30 -49z m-1762 -81 c3 -30 -20 -66 -37
-56 -8 6 -9 12 -2 20 7 9 7 16 -1 24 -15 15 -2 44 19 40 11 -2 19 -14 21 -28z"/>
<path d="M7920 4301 c0 -18 69 -95 78 -86 5 4 -66 105 -74 105 -2 0 -4 -8 -4
-19z"/>
<path d="M990 1720 l0 -450 140 0 140 0 0 199 c0 120 4 202 10 206 28 17 48
-20 110 -209 l64 -196 143 0 142 0 -31 73 c-17 39 -64 150 -104 245 l-73 173
89 197 c50 108 90 200 90 204 0 5 -55 7 -122 6 l-121 -3 -69 -170 c-110 -271
-128 -272 -128 -9 l0 184 -140 0 -140 0 0 -450z"/>
<path d="M2011 2118 c-6 -29 -40 -222 -76 -428 -37 -206 -69 -385 -72 -397
l-5 -23 145 0 c165 0 151 -9 162 98 l7 63 77 -3 76 -3 14 -77 14 -78 139 0
c104 0 138 3 138 13 -1 6 -40 208 -88 447 l-88 435 -216 3 -217 2 -10 -52z
m258 -121 c12 -16 65 -403 57 -423 -6 -17 -146 -20 -162 -4 -7 7 0 74 22 211
35 217 50 255 83 216z"/>
<path d="M2229 1707 c-8 -53 -14 -99 -12 -101 2 -2 15 -1 28 2 29 5 29 12 12
122 l-12 75 -16 -98z"/>
<path d="M2797 2163 c-4 -3 -7 -206 -7 -450 l0 -443 235 0 235 0 0 65 0 65
-88 0 c-55 0 -92 4 -100 12 -9 9 -12 108 -12 385 l0 373 -128 0 c-71 0 -132
-3 -135 -7z"/>
<path d="M3447 2163 c-4 -3 -7 -206 -7 -450 l0 -443 140 0 140 0 0 450 0 450
-133 0 c-74 0 -137 -3 -140 -7z"/>
<path d="M4270 1720 l0 -450 235 0 235 0 0 65 0 65 -88 0 c-55 0 -92 4 -100
12 -9 9 -12 108 -12 385 l0 373 -135 0 -135 0 0 -450z"/>
<path d="M4920 1720 l0 -450 140 0 140 0 0 450 0 450 -140 0 -140 0 0 -450z"/>
<path d="M5430 1720 l0 -450 110 0 110 0 0 209 c0 130 4 212 10 216 31 19 49
-10 130 -215 l82 -210 119 0 119 0 0 450 0 450 -105 0 -105 0 0 -210 0 -210
-29 0 c-28 0 -32 7 -122 210 l-94 210 -112 0 -113 0 0 -450z"/>
<path d="M6342 1792 l3 -378 24 -35 c31 -46 85 -83 151 -106 66 -22 271 -25
337 -5 65 20 134 72 160 121 23 44 23 47 23 413 l0 368 -135 0 -134 0 -3 -384
c-3 -361 -4 -385 -22 -405 -23 -25 -82 -28 -112 -7 -18 14 -19 32 -22 405 l-3
391 -135 0 -135 0 3 -378z"/>
<path d="M7214 2148 c3 -13 28 -104 57 -203 l51 -180 -59 -245 -59 -245 129
-3 c72 -1 131 -1 133 0 1 2 18 77 36 168 33 159 35 165 58 165 23 0 27 -10 71
-165 l47 -165 125 -3 126 -3 -84 252 -84 252 54 187 c30 103 55 192 55 199 0
7 -34 11 -109 11 l-108 0 -28 -102 c-55 -207 -79 -208 -130 -5 l-28 107 -130
0 c-129 0 -129 0 -123 -22z"/>
<path d="M1251 831 c-6 -11 -11 -33 -11 -50 0 -28 3 -31 31 -31 30 0 30 1 27
47 -3 53 -28 70 -47 34z"/>
<path d="M2293 843 c-24 -9 -13 -23 18 -23 20 0 29 4 27 13 -5 13 -26 18 -45
10z"/>
<path d="M3252 838 c-17 -17 -15 -63 3 -78 24 -20 47 6 43 49 -3 38 -24 51
-46 29z"/>
<path d="M3390 835 c-11 -13 -8 -15 20 -15 21 0 30 4 28 13 -7 18 -33 20 -48
2z"/>
<path d="M4502 838 c-7 -7 -12 -29 -12 -50 0 -36 2 -38 30 -38 28 0 30 2 30
38 0 34 -14 62 -30 62 -3 0 -11 -5 -18 -12z"/>
<path d="M6932 838 c-15 -15 -15 -43 -2 -69 14 -26 26 -24 46 6 29 44 -9 98
-44 63z"/>
<path d="M7492 838 c-18 -18 -14 -53 8 -73 16 -15 22 -15 35 -5 15 13 20 46 9
74 -7 19 -35 21 -52 4z"/>
<path d="M1400 835 c-11 -13 -7 -15 25 -15 32 0 36 2 25 15 -7 8 -18 15 -25
15 -7 0 -18 -7 -25 -15z"/>
<path d="M1642 838 c-30 -30 -4 -96 32 -82 13 5 16 17 14 48 -3 43 -22 58 -46
34z"/>
<path d="M2047 843 c-15 -14 -6 -23 24 -23 27 0 30 2 19 15 -13 16 -32 19 -43
8z"/>
<path d="M2832 838 c-17 -17 -15 -63 3 -78 30 -25 66 31 45 70 -12 23 -30 26
-48 8z"/>
<path d="M3527 843 c-13 -13 -7 -71 9 -84 14 -11 19 -10 34 9 10 12 23 22 29
22 6 0 11 6 11 14 0 9 -8 12 -25 8 -20 -3 -25 0 -25 17 0 20 -19 28 -33 14z"/>
<path d="M3656 834 c-18 -47 9 -99 39 -74 21 18 28 46 15 70 -13 24 -45 27
-54 4z"/>
<path d="M3827 837 c-13 -9 -18 -23 -15 -47 3 -30 7 -35 28 -35 20 0 26 5 28
30 2 17 -3 38 -10 48 -11 15 -16 16 -31 4z"/>
<path d="M3913 843 c-8 -3 -13 -23 -13 -50 0 -40 2 -44 23 -41 17 2 23 10 25
39 3 37 -13 60 -35 52z"/>
<path d="M4050 835 c-11 -13 -8 -15 20 -15 21 0 30 4 28 13 -7 18 -33 20 -48
2z"/>
<path d="M4650 835 c-11 -13 -8 -15 20 -15 21 0 30 4 28 13 -7 18 -33 20 -48
2z"/>
<path d="M4912 838 c-7 -7 -12 -29 -12 -50 0 -34 3 -38 26 -38 24 0 25 2 22
47 -3 48 -15 62 -36 41z"/>
<path d="M4991 836 c-7 -8 -11 -30 -9 -48 2 -26 8 -34 26 -36 22 -3 23 -1 20
44 -3 50 -17 65 -37 40z"/>
<path d="M5136 834 c-18 -47 9 -99 39 -74 21 18 28 46 15 70 -13 24 -45 27
-54 4z"/>
<path d="M5420 835 c-11 -13 -8 -15 20 -15 21 0 30 4 28 13 -7 18 -33 20 -48
2z"/>
<path d="M5819 826 c-10 -20 -9 -30 5 -51 9 -14 20 -25 25 -25 18 0 32 30 29
62 -4 44 -42 53 -59 14z"/>
<path d="M6527 843 c-15 -14 -6 -23 23 -23 22 0 28 4 24 15 -6 15 -35 20 -47
8z"/>
<path d="M6230 780 c-11 -6 -12 -12 -4 -20 13 -13 40 -4 48 16 6 16 -21 19
-44 4z"/>
<path d="M6760 780 c-11 -6 -12 -12 -4 -20 13 -13 40 -4 48 16 6 16 -21 19
-44 4z"/>
<path d="M7150 835 c-11 -13 -7 -15 25 -15 32 0 36 2 25 15 -7 8 -18 15 -25
15 -7 0 -18 -7 -25 -15z"/>
<path d="M7913 843 c-24 -9 -13 -23 18 -23 20 0 29 4 27 13 -5 13 -26 18 -45
10z"/>
<path d="M8040 780 c-13 -9 -13 -11 -1 -19 16 -10 51 3 51 19 0 13 -31 13 -50
0z"/>
</g>
</svg>
