<?xml version="1.0" standalone="no"?>
<!DOCTYPE svg PUBLIC "-//W3C//DTD SVG 20010904//EN"
 "http://www.w3.org/TR/2001/REC-SVG-20010904/DTD/svg10.dtd">
<svg version="1.0" xmlns="http://www.w3.org/2000/svg"
 width="800.000000pt" height="600.000000pt" viewBox="0 0 800.000000 600.000000"
 preserveAspectRatio="xMidYMid meet">
<metadata>
Created by potrace 1.16, written by Peter Selinger 2001-2019
</metadata>
<g transform="translate(0.000000,600.000000) scale(0.100000,-0.100000)"
fill="#000000" stroke="none">
<path d="M3770 4519 c-174 -23 -347 -85 -428 -154 -74 -64 -76 -73 -80 -307
l-4 -208 376 0 376 0 0 -60 0 -59 -592 -3 -593 -3 -56 -29 c-193 -97 -309
-359 -309 -697 0 -373 147 -670 364 -734 33 -10 95 -15 188 -15 l138 0 0 153
c0 412 66 554 289 620 60 18 108 21 531 26 452 7 467 8 519 29 114 48 194 129
232 237 18 51 19 85 19 472 0 468 1 458 -75 542 -78 86 -244 158 -432 186
-106 16 -354 18 -463 4z m-109 -242 c71 -48 76 -143 9 -209 -34 -35 -42 -38
-92 -38 -62 0 -97 21 -123 70 -62 121 92 254 206 177z"/>
</g>
</svg>
