<?xml version="1.0" standalone="no"?>
<!DOCTYPE svg PUBLIC "-//W3C//DTD SVG 20010904//EN"
 "http://www.w3.org/TR/2001/REC-SVG-20010904/DTD/svg10.dtd">
<svg version="1.0" xmlns="http://www.w3.org/2000/svg"
 width="1055.000000pt" height="867.000000pt" viewBox="0 0 1055.000000 867.000000"
 preserveAspectRatio="xMidYMid meet">

<g transform="translate(0.000000,867.000000) scale(0.100000,-0.100000)"
fill="#000000" stroke="none">
<path d="M1546 5873 c-37 -119 -90 -448 -107 -658 -23 -289 12 -895 51 -895 5
0 77 -29 161 -65 84 -36 156 -62 160 -58 3 5 16 42 29 83 12 41 50 138 85 215
63 142 111 265 140 365 10 36 19 135 26 285 13 263 4 438 -32 628 l-23 117
-242 0 c-222 0 -243 -1 -248 -17z"/>
<path d="M2433 5840 c79 -88 92 -162 73 -416 -9 -111 -9 -112 17 -146 55 -71
67 -114 67 -238 0 -130 -11 -188 -37 -208 -21 -15 -19 -21 -37 98 -16 108 -44
191 -81 235 -22 27 -21 21 11 -47 41 -88 49 -137 65 -379 14 -199 9 -241 -43
-388 -40 -115 -92 -213 -139 -261 -33 -34 -39 -47 -39 -84 0 -44 0 -44 73 -86
160 -95 263 -185 340 -300 27 -41 61 -87 75 -102 l25 -28 44 143 c24 78 66
189 93 247 126 274 158 381 171 584 16 226 6 543 -21 671 -41 201 -60 341 -60
451 0 101 2 115 28 165 23 46 36 58 84 83 74 37 180 41 245 7 24 -11 75 -28
115 -36 84 -18 98 -28 98 -65 0 -36 -56 -86 -157 -142 -79 -43 -108 -72 -118
-119 -10 -44 40 -140 116 -223 97 -106 110 -167 87 -402 l-12 -122 41 -68 c23
-38 46 -85 51 -105 12 -46 0 -277 -16 -306 -25 -46 -38 -27 -50 72 -14 107
-42 193 -78 233 -24 26 -24 25 4 -33 16 -33 34 -82 40 -110 15 -69 27 -265 26
-415 -1 -108 -4 -136 -28 -205 -42 -124 -104 -243 -152 -295 -50 -53 -52 -70
-32 -191 10 -61 15 -72 37 -82 33 -14 359 -13 421 1 l45 10 -70 1 c-79 1 -104
11 -82 30 10 7 65 13 148 16 222 6 329 55 397 182 17 33 79 200 136 371 87
256 120 339 190 479 172 342 250 559 266 745 14 154 25 742 16 791 l-7 37
-1215 0 -1216 0 45 -50z"/>
<path d="M5506 5858 c-3 -18 -9 -92 -12 -165 l-7 -132 61 -91 c87 -128 94
-159 86 -360 -7 -182 -16 -234 -47 -267 -20 -22 -47 -31 -47 -15 0 4 -9 66
-19 137 -28 190 -75 309 -151 380 l-31 30 41 -72 c62 -106 100 -223 100 -308
0 -38 9 -158 20 -265 11 -107 20 -223 20 -258 0 -230 -168 -626 -329 -774 -50
-47 -51 -48 -51 -106 0 -49 19 -169 45 -278 4 -17 12 -21 52 -22 38 0 52 -5
70 -27 13 -14 23 -34 23 -43 0 -11 31 -35 83 -65 45 -26 156 -99 247 -162 492
-341 593 -402 702 -426 118 -26 385 -17 703 24 326 42 494 57 649 57 101 0
253 -12 316 -25 23 -5 34 6 101 97 386 520 620 1107 706 1763 25 196 25 721 0
910 -17 127 -66 383 -87 458 l-11 37 -1613 0 -1614 0 -6 -32z"/>
<path d="M2062 4443 c-23 -16 -53 -45 -66 -64 -24 -36 -79 -229 -67 -241 3 -3
61 -31 127 -61 l122 -55 -9 32 c-7 25 -5 36 13 61 19 25 23 43 23 105 0 98
-19 161 -64 211 l-36 41 -43 -29z"/>
<path d="M4770 4249 c-105 -72 -149 -138 -175 -263 -43 -209 -182 -487 -312
-624 l-51 -54 32 6 c167 31 258 40 431 40 148 1 209 -3 273 -18 46 -9 85 -16
88 -14 2 2 -24 88 -58 190 -67 202 -67 197 -16 261 31 38 37 174 13 281 -25
115 -106 227 -162 226 -10 0 -38 -14 -63 -31z"/>
<path d="M3073 3841 c-54 -39 -79 -82 -96 -167 -8 -38 -31 -112 -50 -164 -33
-87 -34 -95 -19 -107 50 -38 328 -160 339 -149 3 3 -9 52 -26 109 -36 121 -37
134 -14 160 25 27 30 148 9 221 -16 56 -67 126 -91 126 -6 0 -30 -13 -52 -29z"/>
</g>
</svg>
