<?xml version="1.0" standalone="no"?>
<!DOCTYPE svg PUBLIC "-//W3C//DTD SVG 20010904//EN"
 "http://www.w3.org/TR/2001/REC-SVG-20010904/DTD/svg10.dtd">
<svg version="1.0" xmlns="http://www.w3.org/2000/svg"
 width="830.000000pt" height="460.000000pt" viewBox="0 0 830.000000 460.000000"
 preserveAspectRatio="xMidYMid meet">
<metadata>
Created by potrace 1.16, written by Peter Selinger 2001-2019
</metadata>
<g transform="translate(0.000000,460.000000) scale(0.100000,-0.100000)"
fill="#000000" stroke="none">
<path d="M4096 3411 c-37 -6 -55 -15 -77 -39 -32 -35 -32 -37 -49 -171 -7 -52
-19 -116 -26 -143 -13 -42 -13 -61 1 -152 21 -147 19 -181 -19 -298 -18 -56
-46 -143 -61 -193 -16 -49 -36 -109 -46 -131 -10 -23 -24 -64 -30 -90 -6 -27
-14 -56 -16 -64 -3 -10 -15 -3 -41 26 -64 71 -108 87 -254 92 l-128 4 0 -456
0 -456 80 0 80 0 0 161 c0 145 2 160 17 157 12 -2 31 -47 67 -158 l51 -155 69
-3 c38 -2 74 -1 81 2 9 3 -5 57 -47 183 -33 100 -56 183 -51 189 4 6 23 30 41
54 31 41 45 99 20 84 -7 -4 -8 -3 -4 5 4 6 11 9 16 6 12 -7 19 48 20 150 1 50
1 101 2 115 0 26 36 85 46 76 3 -3 6 -32 8 -63 1 -32 11 -98 21 -147 18 -87
19 -89 58 -110 l40 -20 -33 -10 -32 -9 0 -253 0 -254 75 0 75 0 0 260 0 260
-25 0 c-14 0 -25 5 -25 11 0 6 -7 8 -16 5 -8 -3 -12 -2 -9 3 7 12 -31 25 -45
16 -6 -4 -7 1 -3 11 4 12 3 15 -5 10 -25 -15 -17 112 9 144 11 14 32 42 48 62
25 33 29 35 34 18 3 -11 1 -37 -4 -57 -5 -21 -9 -62 -9 -91 0 -48 2 -54 33
-72 17 -11 38 -18 44 -15 7 2 12 -1 10 -7 -1 -7 10 -14 25 -17 l28 -6 4 -120
c9 -219 68 -358 172 -401 40 -17 143 -18 179 -2 24 11 25 16 25 86 0 67 -2 73
-17 67 -10 -4 -38 -10 -63 -12 -35 -4 -51 0 -72 16 -47 37 -60 97 -64 286 -4
146 -2 177 14 218 30 79 50 99 102 101 25 0 55 -2 66 -7 20 -7 21 -5 22 57 0
44 -4 69 -14 77 -23 19 -138 14 -181 -8 -47 -24 -95 -86 -118 -150 -9 -26 -21
-56 -26 -65 -5 -10 -9 -38 -9 -62 0 -25 -4 -47 -10 -51 -5 -3 -26 1 -47 10
-78 33 -91 67 -48 126 55 76 75 109 81 136 4 15 11 33 15 39 5 6 14 58 21 115
8 70 18 113 30 131 19 27 19 28 -1 55 -16 24 -37 95 -33 115 2 8 -71 74 -87
79 -14 5 -44 107 -35 120 11 19 22 8 29 -28 5 -27 24 -55 66 -100 35 -36 59
-70 59 -83 0 -13 4 -19 12 -14 7 4 8 3 4 -5 -10 -16 0 -56 20 -75 22 -22 33
-20 29 7 -9 72 -18 118 -26 122 -4 3 -5 13 -2 22 4 11 3 14 -5 9 -7 -4 -12 -1
-12 7 0 8 -7 21 -17 28 -34 29 -72 142 -58 177 5 14 8 13 20 -7 7 -14 11 -30
8 -37 -2 -7 0 -15 6 -19 6 -3 11 -15 11 -26 0 -12 16 -40 36 -65 34 -41 46
-72 60 -154 3 -19 8 -38 11 -42 12 -21 18 -1 21 72 3 79 2 82 -35 138 -21 32
-46 84 -55 117 -18 66 -58 273 -58 303 0 24 39 67 70 77 83 26 133 95 69 95
-11 0 -34 7 -52 16 -32 17 -32 16 -14 -3 23 -26 22 -28 -17 -58 -30 -23 -38
-25 -58 -14 -28 14 -68 50 -68 61 0 14 78 48 97 41 13 -4 15 -3 8 5 -15 16
-54 21 -109 13z m-506 -1311 c44 -24 69 -127 49 -204 -8 -30 -8 -41 3 -48 10
-8 9 -9 -4 -5 -9 3 -22 -1 -28 -9 -18 -20 -88 -40 -101 -27 -5 5 -11 76 -12
160 l-2 151 38 -4 c20 -2 46 -8 57 -14z"/>
<path d="M2429 2231 c-35 -19 -89 -88 -89 -114 0 -7 -5 -18 -11 -24 -17 -17
-13 -121 6 -167 17 -40 65 -119 77 -124 10 -5 124 -145 136 -168 6 -11 12 -40
13 -62 3 -49 -12 -64 -80 -85 -38 -12 -49 -12 -73 1 -16 7 -35 11 -43 8 -8 -3
-14 -2 -12 2 1 4 -2 9 -8 12 -6 3 -10 -23 -10 -70 l0 -74 45 -14 c26 -7 76
-12 116 -10 109 5 177 58 205 163 19 70 -16 217 -63 266 -7 8 -29 34 -48 59
-19 24 -49 59 -65 78 -49 52 -68 96 -61 134 11 56 31 73 84 72 63 0 102 -7
102 -16 0 -4 5 -8 10 -8 15 0 13 137 -2 147 -7 4 -53 9 -103 10 -74 3 -96 0
-126 -16z"/>
<path d="M2785 2227 c-4 -13 -5 -180 -3 -373 3 -329 4 -352 24 -394 65 -140
247 -175 352 -67 69 72 72 90 72 497 l0 360 -69 0 c-54 0 -70 -3 -75 -16 -3
-9 -6 -162 -6 -339 1 -178 -2 -336 -6 -352 -10 -42 -33 -63 -69 -63 -69 0 -74
30 -75 438 l-1 332 -69 0 c-64 0 -70 -2 -75 -23z"/>
<path d="M4723 2230 c-4 -49 -64 -366 -72 -381 -5 -9 -28 -117 -51 -240 -22
-123 -43 -234 -47 -246 -5 -22 -3 -23 70 -23 86 0 79 -8 97 108 l12 72 73 0
73 0 12 -72 c17 -104 15 -103 100 -106 l73 -3 -6 38 c-24 165 -76 413 -87 413
-4 0 -6 11 -5 25 2 14 -3 47 -10 73 -7 27 -22 109 -34 183 -32 189 -25 179
-119 179 -71 0 -78 -2 -79 -20z m107 -375 c25 -166 27 -185 22 -190 -8 -8 -90
-6 -95 3 -7 12 13 152 38 267 9 43 20 17 35 -80z"/>
<path d="M5041 2186 l-2 -65 53 -3 53 -3 0 -385 0 -385 78 -3 77 -3 0 181 c0
178 0 181 -22 190 -18 7 -19 9 -5 9 16 1 17 17 17 190 0 139 3 191 13 198 6 5
31 9 54 8 40 0 41 1 46 40 3 21 3 52 0 67 l-5 28 -178 0 -177 0 -2 -64z"/>
<path d="M5576 2233 c-2 -10 -19 -94 -37 -188 -17 -93 -43 -222 -56 -285 -20
-96 -41 -202 -77 -392 l-5 -28 73 0 c83 0 78 -5 91 95 12 89 8 85 90 85 l73 0
12 -72 c18 -116 11 -108 96 -108 88 0 88 -1 49 131 -13 46 -25 98 -25 116 0
17 -5 35 -10 38 -6 4 -8 10 -6 14 3 4 -6 68 -20 142 -14 74 -34 179 -44 234
-10 55 -24 120 -30 145 -6 25 -11 55 -11 68 1 21 -3 22 -78 22 -67 0 -80 -3
-85 -17z m100 -350 c20 -96 27 -142 28 -187 1 -38 0 -39 -31 -39 -82 2 -76 -3
-68 61 4 31 9 68 11 82 1 14 7 43 13 65 5 22 13 53 16 69 8 39 15 28 31 -51z"/>
</g>
</svg>
