<?xml version="1.0" standalone="no"?>
<!DOCTYPE svg PUBLIC "-//W3C//DTD SVG 20010904//EN"
 "http://www.w3.org/TR/2001/REC-SVG-20010904/DTD/svg10.dtd">
<svg version="1.0" xmlns="http://www.w3.org/2000/svg"
 width="410.000000pt" height="136.000000pt" viewBox="0 0 410.000000 136.000000"
 preserveAspectRatio="xMidYMid meet">
<metadata>
Created by potrace 1.16, written by Peter Selinger 2001-2019
</metadata>
<g transform="translate(0.000000,136.000000) scale(0.100000,-0.100000)"
fill="#000000" stroke="none">
<path d="M0 1210 c0 -82 3 -150 6 -150 3 0 76 64 162 142 87 78 161 145 167
150 5 4 -68 8 -163 8 l-172 0 0 -150z"/>
<path d="M380 1336 c0 -12 -3 -51 -6 -84 l-7 -62 404 -2 404 -3 0 -22 c0 -30
-104 -163 -128 -163 -35 0 -30 30 12 80 l42 50 -383 0 c-211 0 -389 4 -396 9
-11 6 -12 21 -4 70 l9 62 -31 -28 c-17 -16 -75 -69 -130 -118 l-99 -89 50 -46
c27 -25 85 -77 129 -117 l80 -72 -9 60 c-7 44 -7 63 2 72 8 8 83 13 252 16
245 3 269 0 269 -36 0 -8 -73 -100 -162 -206 -89 -106 -168 -200 -176 -209
-14 -17 -5 -18 177 -18 l191 0 -5 23 c-3 12 -6 49 -8 82 -2 53 0 60 17 60 28
0 354 -295 355 -320 0 -13 -47 -63 -145 -150 -80 -72 -155 -140 -166 -152
l-21 -23 1591 0 1592 0 0 169 c0 157 -1 169 -19 174 -10 2 -75 74 -143 160
l-125 155 -76 -76 -76 -77 -3 -80 -3 -80 -30 0 -30 0 0 420 0 420 30 0 30 0 5
-293 5 -292 195 205 c142 149 201 205 217 205 l23 0 0 175 0 175 -1850 0
-1850 0 0 -24z m2152 -349 c93 -54 148 -145 156 -258 4 -61 3 -68 -17 -78 -14
-8 -97 -11 -266 -9 -276 3 -258 10 -228 -77 21 -63 93 -136 149 -153 91 -27
174 -11 253 49 43 32 55 37 71 29 45 -24 5 -75 -100 -131 -38 -20 -59 -24
-140 -24 -84 0 -101 3 -146 27 -65 34 -137 114 -159 176 -67 196 18 403 192
468 61 23 180 13 235 -19z m701 17 c105 -36 186 -150 195 -275 4 -61 3 -68
-17 -78 -14 -8 -97 -11 -267 -9 l-246 3 6 -38 c20 -120 123 -207 246 -207 63
0 112 18 169 61 43 32 55 37 71 29 45 -24 5 -76 -100 -131 -38 -20 -60 -23
-140 -24 -84 0 -101 3 -146 27 -243 128 -244 506 -2 627 71 36 154 41 231 15z
m-1249 0 c9 -3 16 -16 16 -28 -1 -12 -90 -128 -226 -291 l-224 -270 227 -5
c209 -5 228 -6 231 -23 9 -45 -6 -47 -275 -47 -254 0 -293 5 -293 35 0 8 102
138 226 287 l226 273 -218 5 c-121 4 -220 7 -221 8 -2 1 -3 10 -3 20 0 40 15
42 271 42 136 0 254 -3 263 -6z"/>
<path d="M2292 929 c-61 -31 -113 -104 -127 -182 l-7 -37 230 0 229 0 -8 45
c-15 79 -60 145 -119 175 -54 27 -141 27 -198 -1z"/>
<path d="M3050 939 c-51 -21 -93 -63 -121 -123 -16 -33 -29 -71 -29 -83 l0
-23 229 0 229 0 -9 39 c-31 136 -101 202 -216 200 -32 0 -69 -5 -83 -10z"/>
<path d="M0 511 l0 -511 430 0 c352 0 428 2 424 13 -2 7 -1 46 4 85 l8 72
-405 2 c-378 3 -406 4 -409 21 -5 27 108 166 136 167 33 0 28 -27 -14 -80
l-36 -45 389 -5 c213 -3 390 -7 392 -8 2 -1 0 -30 -3 -64 -7 -58 -6 -61 10
-47 49 39 231 205 232 211 2 6 -75 78 -226 212 l-22 20 2 -64 3 -64 -40 -8
c-22 -4 -138 -7 -257 -7 -184 -1 -219 1 -232 15 -9 8 -16 19 -16 23 0 4 79
101 175 214 96 114 175 209 175 212 0 3 -80 5 -178 5 l-178 0 9 -69 c10 -74 6
-101 -15 -101 -13 0 -75 54 -266 229 l-92 83 0 -511z"/>
<path d="M3958 833 l-118 -118 118 -147 117 -147 3 135 c1 74 1 194 0 265 l-3
129 -117 -117z"/>
</g>
</svg>
